<svg xmlns="http://www.w3.org/2000/svg" width="1035" height="720" viewBox="0 0 1035 720"><defs><filter id="blur"><feGaussianBlur stdDeviation="24"/></filter></defs><rect width="1035" height="720" fill="#a85a2a"/><path d="M310 54H725V378L706 366L687 378L668 366L649 378L630 366L611 378L592 366L573 378L554 366L535 378L516 366L497 378L478 366L459 378L440 366L421 378L402 366L383 378L364 366L345 378L326 366L310 378Z" fill="#f7f3ea"/><path d="M350 118H685M350 170H540M350 214H600M350 258H490M592 258H685M350 302H685" stroke="#a85a2a" stroke-width="5"/><circle cx="646" cy="207" r="26" fill="none" stroke="#a85a2a" stroke-width="5"/><path d="M0 460Q517 394 1035 460V720H0Z" fill="#1c1712" opacity="0.15" filter="url(#blur)"/></svg>