<svg width="1080" height="1080" viewBox="0 0 1080 1080" fill="none" xmlns="http://www.w3.org/2000/svg">
  <defs>
    <linearGradient id="bg" x1="92" y1="54" x2="990" y2="1020" gradientUnits="userSpaceOnUse">
      <stop stop-color="#061024"/>
      <stop offset="1" stop-color="#132447"/>
    </linearGradient>
    <linearGradient id="cyan" x1="258" y1="664" x2="536" y2="664" gradientUnits="userSpaceOnUse">
      <stop stop-color="#38F0FF"/>
      <stop offset="1" stop-color="#4C7FFF"/>
    </linearGradient>
    <linearGradient id="gold" x1="708" y1="354" x2="874" y2="496" gradientUnits="userSpaceOnUse">
      <stop stop-color="#FFE4A6"/>
      <stop offset="1" stop-color="#D39E37"/>
    </linearGradient>
  </defs>
  <rect width="1080" height="1080" rx="96" fill="url(#bg)"/>
  <circle cx="852" cy="202" r="210" fill="#FFD987" fill-opacity="0.12"/>
  <circle cx="168" cy="912" r="226" fill="#6BFFC8" fill-opacity="0.08"/>
  <rect x="126" y="126" width="828" height="828" rx="64" fill="#0F1A31" stroke="#2B4778" stroke-width="4"/>
  <text x="164" y="224" fill="#F5F7FF" font-family="Segoe UI, Arial, sans-serif" font-size="70" font-weight="700">Crypto cashout</text>
  <text x="164" y="276" fill="#A8B9D7" font-family="Segoe UI, Arial, sans-serif" font-size="28">Live market. Clean settlement.</text>
  <rect x="164" y="360" width="760" height="470" rx="54" fill="#0C172A" stroke="#29435F"/>
  <rect x="216" y="416" width="232" height="318" rx="38" fill="#132246" stroke="#31507E" stroke-width="3"/>
  <circle cx="332" cy="566" r="78" fill="#091523" stroke="#2EEFFF" stroke-width="4"/>
  <path d="M304 530C312 522 321 518 333 518C350 518 364 526 370 540" stroke="#F7FAFF" stroke-width="8" stroke-linecap="round"/>
  <path d="M356 530L376 540L360 558" stroke="#FFD26D" stroke-width="8" stroke-linecap="round" stroke-linejoin="round"/>
  <path d="M360 606C352 616 342 621 330 621C313 621 298 612 292 598" stroke="#F7FAFF" stroke-width="8" stroke-linecap="round"/>
  <path d="M308 606L288 596L304 578" stroke="#FFD26D" stroke-width="8" stroke-linecap="round" stroke-linejoin="round"/>
  <path d="M258 664H502" stroke="url(#cyan)" stroke-width="18" stroke-linecap="round"/>
  <path d="M470 624L536 664L470 704" stroke="url(#cyan)" stroke-width="18" stroke-linecap="round" stroke-linejoin="round"/>
  <rect x="596" y="456" width="260" height="176" rx="36" fill="#101A30" stroke="#36598B"/>
  <text x="640" y="518" fill="#9EB2D5" font-family="Segoe UI, Arial, sans-serif" font-size="24">MARKET</text>
  <text x="640" y="586" fill="#F5F7FF" font-family="Segoe UI, Arial, sans-serif" font-size="52" font-weight="700">WLD</text>
  <rect x="640" y="604" width="144" height="44" rx="18" fill="url(#gold)"/>
  <text x="712" y="633" fill="#0D1424" font-family="Segoe UI, Arial, sans-serif" font-size="20" font-weight="700" text-anchor="middle">M-Pesa</text>
</svg>
