<svg width="345" height="240" viewBox="0 0 345 240" fill="none" xmlns="http://www.w3.org/2000/svg">
  <defs>
    <linearGradient id="bg" x1="0" y1="0" x2="345" y2="240" gradientUnits="userSpaceOnUse">
      <stop stop-color="#071026"/>
      <stop offset="1" stop-color="#132142"/>
    </linearGradient>
    <linearGradient id="gold" x1="202" y1="24" x2="319" y2="138" gradientUnits="userSpaceOnUse">
      <stop stop-color="#FFE29A"/>
      <stop offset="1" stop-color="#C9972D"/>
    </linearGradient>
    <linearGradient id="cyan" x1="44" y1="152" x2="188" y2="152" gradientUnits="userSpaceOnUse">
      <stop stop-color="#38EFFF"/>
      <stop offset="1" stop-color="#4E7EFF"/>
    </linearGradient>
  </defs>
  <rect width="345" height="240" rx="28" fill="url(#bg)"/>
  <circle cx="281" cy="55" r="56" fill="url(#gold)" fill-opacity="0.14"/>
  <circle cx="70" cy="197" r="58" fill="#6CFFC9" fill-opacity="0.08"/>
  <rect x="24" y="24" width="56" height="56" rx="18" fill="#101C3A" stroke="#2D4C80"/>
  <circle cx="52" cy="52" r="18" fill="#081221" stroke="#2AF0FF" stroke-width="1.8"/>
  <path d="M46 44C49 41 52 40 55 40C61 40 66 44 67 50" stroke="#F7FAFF" stroke-width="3.2" stroke-linecap="round"/>
  <path d="M60 45L68 50L62 56" stroke="#FFD26D" stroke-width="3.2" stroke-linecap="round" stroke-linejoin="round"/>
  <path d="M58 61C55 64 52 65 49 65C43 65 38 61 37 55" stroke="#F7FAFF" stroke-width="3.2" stroke-linecap="round"/>
  <path d="M44 60L36 55L42 49" stroke="#FFD26D" stroke-width="3.2" stroke-linecap="round" stroke-linejoin="round"/>
  <text x="98" y="48" fill="#F5F7FF" font-family="Segoe UI, Arial, sans-serif" font-size="28" font-weight="700">TMpesa</text>
  <text x="98" y="76" fill="#A8B7D5" font-family="Segoe UI, Arial, sans-serif" font-size="14">Bridge crypto to cash in World App</text>
  <text x="30" y="122" fill="#F5F7FF" font-family="Segoe UI, Arial, sans-serif" font-size="30" font-weight="700">WLD and USDC</text>
  <text x="30" y="151" fill="#9DAECC" font-family="Segoe UI, Arial, sans-serif" font-size="19">Settle directly to M-Pesa</text>
  <path d="M36 182H176" stroke="url(#cyan)" stroke-width="7" stroke-linecap="round"/>
  <path d="M160 166L188 182L160 198" stroke="url(#cyan)" stroke-width="7" stroke-linecap="round" stroke-linejoin="round"/>
  <rect x="222" y="129" width="92" height="70" rx="18" fill="#101A31" stroke="#314B7C"/>
  <text x="238" y="156" fill="#91A6CD" font-family="Segoe UI, Arial, sans-serif" font-size="12">YOU RECEIVE</text>
  <text x="238" y="178" fill="#6EFCBE" font-family="Segoe UI, Arial, sans-serif" font-size="18" font-weight="700">KES 4,489</text>
  <text x="238" y="194" fill="#91A6CD" font-family="Segoe UI, Arial, sans-serif" font-size="11">Live market linked</text>
</svg>
