<svg width="345" height="240" viewBox="0 0 345 240" fill="none" xmlns="http://www.w3.org/2000/svg">
  <defs>
    <linearGradient id="bg" x1="0" y1="0" x2="345" y2="240" gradientUnits="userSpaceOnUse">
      <stop stop-color="#071126"/>
      <stop offset="1" stop-color="#132447"/>
    </linearGradient>
    <linearGradient id="card" x1="22" y1="24" x2="320" y2="218" gradientUnits="userSpaceOnUse">
      <stop stop-color="#101D38"/>
      <stop offset="1" stop-color="#0C1528"/>
    </linearGradient>
    <linearGradient id="gold" x1="202" y1="66" x2="302" y2="122" gradientUnits="userSpaceOnUse">
      <stop stop-color="#FFE0A0"/>
      <stop offset="1" stop-color="#CB9832"/>
    </linearGradient>
    <linearGradient id="flow" x1="90" y1="170" x2="186" y2="170" gradientUnits="userSpaceOnUse">
      <stop stop-color="#39F0FF"/>
      <stop offset="1" stop-color="#5B84FF"/>
    </linearGradient>
  </defs>
  <rect width="345" height="240" rx="28" fill="url(#bg)"/>
  <circle cx="286" cy="62" r="58" fill="#FFD88A" fill-opacity="0.14"/>
  <rect x="22" y="22" width="301" height="196" rx="24" fill="url(#card)" stroke="#2C4476"/>
  <rect x="38" y="34" width="58" height="58" rx="18" fill="#132246" stroke="#355381"/>
  <circle cx="67" cy="63" r="18" fill="#081422" stroke="#2CEEFF" stroke-width="1.8"/>
  <path d="M60 55C63 52 65 51 68 51C74 51 78 54 79 59" stroke="#F7FAFF" stroke-width="3" stroke-linecap="round"/>
  <path d="M74 55L81 59L75 65" stroke="#FFD26D" stroke-width="3" stroke-linecap="round" stroke-linejoin="round"/>
  <path d="M73 68C70 71 67 72 64 72C58 72 54 69 53 64" stroke="#F7FAFF" stroke-width="3" stroke-linecap="round"/>
  <path d="M59 68L52 64L58 58" stroke="#FFD26D" stroke-width="3" stroke-linecap="round" stroke-linejoin="round"/>
  <text x="110" y="58" fill="#F5F7FF" font-family="Segoe UI, Arial, sans-serif" font-size="24" font-weight="700">TMpesa</text>
  <text x="110" y="79" fill="#9DB0D4" font-family="Segoe UI, Arial, sans-serif" font-size="12">World cash desk</text>
  <rect x="40" y="108" width="264" height="92" rx="22" fill="#0D182A" stroke="#26415F"/>
  <text x="58" y="138" fill="#8DA4CE" font-family="Segoe UI, Arial, sans-serif" font-size="11">LIVE MARKET</text>
  <text x="58" y="172" fill="#F5F7FF" font-family="Segoe UI, Arial, sans-serif" font-size="32" font-weight="700">WLD to KES</text>
  <path d="M58 186H152" stroke="url(#flow)" stroke-width="6" stroke-linecap="round"/>
  <path d="M139 174L164 186L139 198" stroke="url(#flow)" stroke-width="6" stroke-linecap="round" stroke-linejoin="round"/>
  <rect x="220" y="130" width="66" height="40" rx="14" fill="url(#gold)"/>
  <text x="253" y="156" fill="#101521" font-family="Segoe UI, Arial, sans-serif" font-size="14" font-weight="700" text-anchor="middle">M-Pesa</text>
</svg>
