<svg width="1080" height="1080" viewBox="0 0 1080 1080" fill="none" xmlns="http://www.w3.org/2000/svg">
  <defs>
    <linearGradient id="bg" x1="0" y1="0" x2="1080" y2="1080" gradientUnits="userSpaceOnUse">
      <stop stop-color="#061024"/>
      <stop offset="1" stop-color="#112245"/>
    </linearGradient>
    <linearGradient id="panel" x1="158" y1="220" x2="894" y2="910" gradientUnits="userSpaceOnUse">
      <stop stop-color="#101B32"/>
      <stop offset="1" stop-color="#0B1628"/>
    </linearGradient>
    <linearGradient id="gold" x1="230" y1="366" x2="824" y2="560" gradientUnits="userSpaceOnUse">
      <stop stop-color="#FFE3A2" stop-opacity="0.18"/>
      <stop offset="1" stop-color="#CB9832" stop-opacity="0.04"/>
    </linearGradient>
  </defs>
  <rect width="1080" height="1080" rx="96" fill="url(#bg)"/>
  <circle cx="860" cy="220" r="186" fill="#FFD987" fill-opacity="0.12"/>
  <circle cx="150" cy="936" r="226" fill="#67FFD0" fill-opacity="0.08"/>
  <rect x="126" y="126" width="828" height="828" rx="64" fill="url(#panel)" stroke="#2D4677" stroke-width="4"/>
  <text x="168" y="218" fill="#F5F7FF" font-family="Segoe UI, Arial, sans-serif" font-size="68" font-weight="700">Wallet view</text>
  <text x="168" y="270" fill="#A0B3D4" font-family="Segoe UI, Arial, sans-serif" font-size="28">Live balance. Real market value.</text>
  <rect x="168" y="334" width="744" height="236" rx="46" fill="#091322" stroke="#28415F"/>
  <rect x="168" y="334" width="744" height="236" rx="46" fill="url(#gold)"/>
  <text x="214" y="404" fill="#B5C6E1" font-family="Segoe UI, Arial, sans-serif" font-size="26">PORTFOLIO</text>
  <text x="214" y="506" fill="#F5F7FF" font-family="Segoe UI, Arial, sans-serif" font-size="96" font-weight="700">KES 12,980</text>
  <rect x="214" y="624" width="652" height="98" rx="30" fill="#162333" stroke="#2F4661"/>
  <text x="256" y="683" fill="#A7B9D6" font-family="Segoe UI, Arial, sans-serif" font-size="34">WLD</text>
  <text x="748" y="683" fill="#F5F7FF" font-family="Segoe UI, Arial, sans-serif" font-size="34" font-weight="700">6.50</text>
  <rect x="214" y="746" width="652" height="98" rx="30" fill="#162333" stroke="#2F4661"/>
  <text x="256" y="805" fill="#A7B9D6" font-family="Segoe UI, Arial, sans-serif" font-size="34">USDC</text>
  <text x="732" y="805" fill="#F5F7FF" font-family="Segoe UI, Arial, sans-serif" font-size="34" font-weight="700">84.00</text>
  <rect x="168" y="884" width="228" height="62" rx="31" fill="#1F315A"/>
  <text x="232" y="924" fill="#F5F7FF" font-family="Segoe UI, Arial, sans-serif" font-size="28" font-weight="600">Wallet sync</text>
  <rect x="422" y="884" width="246" height="62" rx="31" fill="#18342C"/>
  <text x="486" y="924" fill="#DDFEF6" font-family="Segoe UI, Arial, sans-serif" font-size="28" font-weight="600">Live market</text>
</svg>
