<svg width="1200" height="600" viewBox="0 0 1200 600" fill="none" xmlns="http://www.w3.org/2000/svg">
  <defs>
    <linearGradient id="bg" x1="0" y1="0" x2="1200" y2="600" gradientUnits="userSpaceOnUse">
      <stop stop-color="#061024"/>
      <stop offset="1" stop-color="#142547"/>
    </linearGradient>
    <linearGradient id="gold" x1="760" y1="326" x2="1088" y2="466" gradientUnits="userSpaceOnUse">
      <stop stop-color="#FFE3A3"/>
      <stop offset="1" stop-color="#D09A34"/>
    </linearGradient>
  </defs>
  <rect width="1200" height="600" rx="48" fill="url(#bg)"/>
  <circle cx="934" cy="166" r="156" fill="#FFD988" fill-opacity="0.14"/>
  <circle cx="118" cy="560" r="154" fill="#69FFD0" fill-opacity="0.08"/>
  <rect x="66" y="66" width="156" height="156" rx="44" fill="#122042" stroke="#325382"/>
  <circle cx="144" cy="142" r="46" fill="#091524" stroke="#2FF0FF" stroke-width="4"/>
  <path d="M126 121C133 114 138 111 146 111C159 111 170 119 173 131" stroke="#F7FAFF" stroke-width="7.5" stroke-linecap="round"/>
  <path d="M160 121L178 132L163 147" stroke="#FFD26D" stroke-width="7.5" stroke-linecap="round" stroke-linejoin="round"/>
  <path d="M157 160C151 167 144 170 137 170C124 170 113 162 110 150" stroke="#F7FAFF" stroke-width="7.5" stroke-linecap="round"/>
  <path d="M127 161L109 150L124 135" stroke="#FFD26D" stroke-width="7.5" stroke-linecap="round" stroke-linejoin="round"/>
  <text x="258" y="148" fill="#F5F7FF" font-family="Segoe UI, Arial, sans-serif" font-size="72" font-weight="700">TMpesa</text>
  <text x="258" y="198" fill="#A8BAD8" font-family="Segoe UI, Arial, sans-serif" font-size="28">World cash desk</text>
  <text x="84" y="316" fill="#F5F7FF" font-family="Segoe UI, Arial, sans-serif" font-size="70" font-weight="700">Crypto to cash</text>
  <text x="84" y="376" fill="#A6B9D8" font-family="Segoe UI, Arial, sans-serif" font-size="34">WLD and USDC with M-Pesa settlement</text>
  <rect x="760" y="322" width="324" height="170" rx="34" fill="#101A31" stroke="#355886"/>
  <text x="806" y="380" fill="#A6B9D8" font-family="Segoe UI, Arial, sans-serif" font-size="24">LIVE MARKET</text>
  <text x="806" y="444" fill="#F5F7FF" font-family="Segoe UI, Arial, sans-serif" font-size="52" font-weight="700">WLD</text>
  <rect x="806" y="458" width="168" height="48" rx="20" fill="url(#gold)"/>
  <text x="890" y="490" fill="#0F1420" font-family="Segoe UI, Arial, sans-serif" font-size="22" font-weight="700" text-anchor="middle">M-Pesa</text>
</svg>
