<svg width="512" height="512" viewBox="0 0 512 512" fill="none" xmlns="http://www.w3.org/2000/svg">
  <defs>
    <linearGradient id="bg" x1="42" y1="26" x2="470" y2="482" gradientUnits="userSpaceOnUse">
      <stop stop-color="#061024"/>
      <stop offset="1" stop-color="#122448"/>
    </linearGradient>
    <linearGradient id="rim" x1="64" y1="54" x2="448" y2="458" gradientUnits="userSpaceOnUse">
      <stop stop-color="#314F84"/>
      <stop offset="1" stop-color="#172949"/>
    </linearGradient>
    <radialGradient id="glow" cx="0" cy="0" r="1" gradientUnits="userSpaceOnUse" gradientTransform="translate(256 180) rotate(90) scale(148)">
      <stop stop-color="#2FF1FF" stop-opacity="0.42"/>
      <stop offset="1" stop-color="#2FF1FF" stop-opacity="0"/>
    </radialGradient>
    <linearGradient id="screen" x1="188" y1="98" x2="324" y2="250" gradientUnits="userSpaceOnUse">
      <stop stop-color="#163061"/>
      <stop offset="1" stop-color="#0D1831"/>
    </linearGradient>
    <linearGradient id="gold" x1="202" y1="188" x2="318" y2="280" gradientUnits="userSpaceOnUse">
      <stop stop-color="#FFE5A8"/>
      <stop offset="1" stop-color="#D6A33B"/>
    </linearGradient>
    <linearGradient id="silver" x1="210" y1="178" x2="314" y2="270" gradientUnits="userSpaceOnUse">
      <stop stop-color="#F9FCFF"/>
      <stop offset="1" stop-color="#A3B2C8"/>
    </linearGradient>
  </defs>
  <rect width="512" height="512" rx="132" fill="url(#bg)"/>
  <rect x="46" y="46" width="420" height="420" rx="126" fill="#0A1428" stroke="url(#rim)" stroke-width="4"/>
  <circle cx="256" cy="180" r="146" fill="url(#glow)"/>
  <rect x="178" y="86" width="156" height="214" rx="40" fill="#091425" stroke="#31507E" stroke-width="4"/>
  <rect x="191" y="100" width="130" height="170" rx="30" fill="url(#screen)"/>
  <circle cx="256" cy="286" r="8" fill="#8EA5CD"/>
  <circle cx="256" cy="182" r="64" fill="#081320" stroke="#2EEFFF" stroke-width="4"/>
  <path d="M233 152C239 145 247 141 255 141C270 141 282 149 286 162" stroke="url(#silver)" stroke-width="9" stroke-linecap="round"/>
  <path d="M275 152L291 162L278 176" stroke="url(#gold)" stroke-width="9" stroke-linecap="round" stroke-linejoin="round"/>
  <path d="M280 212C274 220 266 224 257 224C243 224 230 216 226 203" stroke="url(#silver)" stroke-width="9" stroke-linecap="round"/>
  <path d="M237 212L221 202L234 188" stroke="url(#gold)" stroke-width="9" stroke-linecap="round" stroke-linejoin="round"/>
  <circle cx="196" cy="120" r="14" fill="#C6FFF2" fill-opacity="0.14" stroke="#73F6C9"/>
  <circle cx="319" cy="243" r="12" fill="#FFE4A5" fill-opacity="0.14" stroke="#E7BA58"/>
  <text x="256" y="398" fill="#F6F8FF" font-family="Segoe UI, Arial, sans-serif" font-size="48" font-weight="700" text-anchor="middle">Tcash</text>
  <text x="256" y="432" fill="#97ADD3" font-family="Segoe UI, Arial, sans-serif" font-size="18" text-anchor="middle">Crypto cash desk</text>
</svg>
