<svg width="1200" height="600" viewBox="0 0 1200 600" fill="none" xmlns="http://www.w3.org/2000/svg">
  <defs>
    <linearGradient id="bg" x1="0" y1="0" x2="1200" y2="600" gradientUnits="userSpaceOnUse">
      <stop stop-color="#061024"/>
      <stop offset="1" stop-color="#142547"/>
    </linearGradient>
    <linearGradient id="gold" x1="822" y1="94" x2="1084" y2="350" gradientUnits="userSpaceOnUse">
      <stop stop-color="#FFE29A"/>
      <stop offset="1" stop-color="#C9972D"/>
    </linearGradient>
  </defs>
  <rect width="1200" height="600" rx="48" fill="url(#bg)"/>
  <circle cx="930" cy="162" r="160" fill="url(#gold)" fill-opacity="0.16"/>
  <circle cx="120" cy="564" r="152" fill="#68FFD0" fill-opacity="0.08"/>
  <rect x="62" y="62" width="148" height="148" rx="42" fill="#122042" stroke="#315280"/>
  <circle cx="136" cy="136" r="46" fill="#081221" stroke="#2AF0FF" stroke-width="4"/>
  <path d="M119 115C126 108 133 105 141 105C155 105 168 115 170 129" stroke="#F7FAFF" stroke-width="8" stroke-linecap="round"/>
  <path d="M157 115L176 129L161 145" stroke="#FFD26D" stroke-width="8" stroke-linecap="round" stroke-linejoin="round"/>
  <path d="M151 158C144 165 137 168 129 168C115 168 102 158 100 144" stroke="#F7FAFF" stroke-width="8" stroke-linecap="round"/>
  <path d="M115 159L96 145L111 129" stroke="#FFD26D" stroke-width="8" stroke-linecap="round" stroke-linejoin="round"/>
  <text x="246" y="130" fill="#F5F7FF" font-family="Segoe UI, Arial, sans-serif" font-size="70" font-weight="700">TMpesa</text>
  <text x="246" y="186" fill="#A7B9D8" font-family="Segoe UI, Arial, sans-serif" font-size="30">Bridge crypto to cash in World App</text>
  <text x="82" y="312" fill="#F5F7FF" font-family="Segoe UI, Arial, sans-serif" font-size="76" font-weight="700">Buy or sell WLD and USDC</text>
  <text x="82" y="380" fill="#F5F7FF" font-family="Segoe UI, Arial, sans-serif" font-size="76" font-weight="700">with M-Pesa settlement</text>
  <text x="82" y="462" fill="#9AAFD1" font-family="Segoe UI, Arial, sans-serif" font-size="36">Live wallet pricing, World-native sign-in, and clean manual desk review.</text>
  <rect x="768" y="322" width="324" height="178" rx="36" fill="#101A31" stroke="#36588B"/>
  <text x="820" y="384" fill="#A5B8D8" font-family="Segoe UI, Arial, sans-serif" font-size="24">LIVE MARKET</text>
  <text x="820" y="446" fill="#6AF5C1" font-family="Segoe UI, Arial, sans-serif" font-size="54" font-weight="700">KES 34.89</text>
  <text x="820" y="478" fill="#A5B8D8" font-family="Segoe UI, Arial, sans-serif" font-size="22">per 1 WLD</text>
</svg>
